<?xml version="1.0" encoding="UTF-8" standalone="no"?>
<!-- Generator: Adobe Illustrator 22.0.0, SVG Export Plug-In . SVG Version: 6.00 Build 0)  -->

<svg
   version="1.1"
   id="Layer_1"
   x="0px"
   y="0px"
   viewBox="0 0 153.10001 69.900004"
   xml:space="preserve"
   sodipodi:docname="TOP40s.svg"
   inkscape:version="1.4.2 (ebf0e940d0, 2025-05-08)"
   width="153.10001"
   height="69.900002"
   xmlns:inkscape="http://www.inkscape.org/namespaces/inkscape"
   xmlns:sodipodi="http://sodipodi.sourceforge.net/DTD/sodipodi-0.dtd"
   xmlns="http://www.w3.org/2000/svg"
   xmlns:svg="http://www.w3.org/2000/svg"><defs
   id="defs17" /><sodipodi:namedview
   id="namedview17"
   pagecolor="#505050"
   bordercolor="#eeeeee"
   borderopacity="1"
   inkscape:showpageshadow="0"
   inkscape:pageopacity="0"
   inkscape:pagecheckerboard="0"
   inkscape:deskcolor="#505050"
   inkscape:zoom="1.7417356"
   inkscape:cx="4.0189796"
   inkscape:cy="155.87899"
   inkscape:window-width="1914"
   inkscape:window-height="1160"
   inkscape:window-x="0"
   inkscape:window-y="0"
   inkscape:window-maximized="1"
   inkscape:current-layer="Layer_1" />
<style
   type="text/css"
   id="style1">
	.st0{fill:#13110C;}
	.st1{fill:#FFFFFF;}
	.st2{fill:#ED1C24;}
</style>












<polygon
   class="st0"
   points="351.7,74.2 374.2,9.7 314.3,9.8 291.9,74.2 "
   id="polygon11"
   transform="translate(-221.1,-4.4)" />
<polygon
   class="st0"
   points="349,68.9 371.6,4.4 311.7,4.5 289.3,68.9 "
   id="polygon12"
   transform="translate(-221.1,-4.4)" />
<polygon
   class="st1"
   points="312.4,5.4 370.2,5.4 348.4,67.9 290.6,68 "
   id="polygon13"
   transform="translate(-221.1,-4.4)" />
<polygon
   class="st0"
   points="283.6,74.3 306.1,9.8 246.2,9.9 223.8,74.3 "
   id="polygon14"
   transform="translate(-221.1,-4.4)" />
<polygon
   class="st0"
   points="280.9,69 303.4,4.5 243.5,4.6 221.1,69 "
   id="polygon15"
   transform="translate(-221.1,-4.4)" />
<polygon
   class="st1"
   points="244.2,5.5 302.1,5.5 280.2,68 222.5,68.1 "
   id="polygon16"
   transform="translate(-221.1,-4.4)" />
<path
   class="st2"
   d="m 118.1,6 c -14,0.8 -25,11.4 -29.7,25.1 -4.8,13.7 -0.7,26.2 13.4,25.3 14,-0.8 25,-13 29.7,-26.6 C 136.3,16.2 132.2,5.1 118.1,6 m 1,6 -14.4,40 c -0.7,1.9 -1.7,2.3 -3.1,2.3 -1.3,0 -2.2,-1.1 -1.5,-3.3 l 14.4,-40 c 0.8,-2.1 1.8,-2.5 3,-2.5 1.6,0 2.3,1.3 1.6,3.5"
   id="path16" />
<path
   class="st2"
   d="M 50.4,8.2 H 67 l -12.3,36 h 5 L 59,46.6 h -4.9 l -3.6,9.9 H 30.9 L 34.1,46.4 H 14.6 Z m -5.8,9 -25.7,27 h 15.7 z"
   id="path17" />
</svg>
