<?xml version="1.0" encoding="UTF-8" standalone="no"?>
<!-- Generator: Adobe Illustrator 22.0.0, SVG Export Plug-In . SVG Version: 6.00 Build 0)  -->

<svg
   version="1.1"
   id="Layer_1"
   x="0px"
   y="0px"
   viewBox="0 0 246.45109 142.4"
   xml:space="preserve"
   sodipodi:docname="TOP40sq.svg"
   width="246.45108"
   height="142.39999"
   inkscape:version="1.4.2 (ebf0e940d0, 2025-05-08)"
   xmlns:inkscape="http://www.inkscape.org/namespaces/inkscape"
   xmlns:sodipodi="http://sodipodi.sourceforge.net/DTD/sodipodi-0.dtd"
   xmlns="http://www.w3.org/2000/svg"
   xmlns:svg="http://www.w3.org/2000/svg"><defs
   id="defs17" /><sodipodi:namedview
   id="namedview17"
   pagecolor="#505050"
   bordercolor="#eeeeee"
   borderopacity="1"
   inkscape:showpageshadow="0"
   inkscape:pageopacity="0"
   inkscape:pagecheckerboard="0"
   inkscape:deskcolor="#505050"
   inkscape:zoom="1.7417356"
   inkscape:cx="377.78408"
   inkscape:cy="48.514825"
   inkscape:window-width="1914"
   inkscape:window-height="1160"
   inkscape:window-x="0"
   inkscape:window-y="0"
   inkscape:window-maximized="1"
   inkscape:current-layer="Layer_1" />
<style
   type="text/css"
   id="style1">
	.st0{fill:#13110C;}
	.st1{fill:#FFFFFF;}
	.st2{fill:#ED1C24;}
</style>
<polygon
   class="st0"
   points="199.8,74.4 222.4,9.9 162.5,10 140.1,74.5 "
   id="polygon1"
   transform="translate(24.05108,-4.6)" />
<polygon
   class="st0"
   points="197.2,69.1 219.7,4.6 159.8,4.7 137.4,69.2 "
   id="polygon2"
   transform="translate(24.05108,-4.6)" />
<polygon
   class="st1"
   points="160.4,5.3 218.2,5.2 196.4,67.7 138.6,67.8 "
   id="polygon3"
   transform="translate(24.05108,-4.6)" />
<polygon
   class="st0"
   points="131,74.5 153.5,10 93.6,10.1 71.2,74.6 "
   id="polygon4"
   transform="translate(24.05108,-4.6)" />
<polygon
   class="st0"
   points="128.3,69.2 150.9,4.7 90.9,4.8 68.5,69.3 "
   id="polygon5"
   transform="translate(24.05108,-4.6)" />
<polygon
   class="st1"
   points="91.6,5.8 149.5,5.7 127.6,68.2 69.9,68.3 "
   id="polygon6"
   transform="translate(24.05108,-4.6)" />
<polygon
   class="st0"
   points="62.6,74.6 85.1,10.1 25.2,10.2 2.8,74.6 "
   id="polygon7"
   transform="translate(24.05108,-4.6)" />
<polygon
   class="st0"
   points="59.9,69.3 82.5,4.8 22.5,4.9 0.1,69.4 "
   id="polygon8"
   transform="translate(24.05108,-4.6)" />
<polygon
   class="st1"
   points="23.2,5.9 81.1,5.8 59.2,68.3 1.5,68.4 "
   id="polygon9"
   transform="translate(24.05108,-4.6)" />
<path
   class="st2"
   d="m 142.45108,7.1 c -14,0.8 -29.2,12.6 -34,26.2 -4.8,13.7 2.8,24 16.8,23.2 14,-0.8 29.2,-12.6 34,-26.2 4.7,-13.6 -2.8,-24 -16.8,-23.2 m 0.7,5.4 -14.4,40 c -0.6,1.5 -1.9,2.4 -3.3,2.4 -1.5,0 -2,-1.2 -1.3,-3.3 l 14.4,-40 c 0.5,-1.4 1.6,-2.4 3,-2.4 1.6,-0.1 2.2,1.3 1.6,3.3"
   id="path9" />
<polygon
   class="st2"
   points="37.7,16.3 28.3,16.3 29.4,13.6 69.8,13.5 69.1,16.3 60,16.3 43.6,61 22.4,61.1 "
   id="polygon10"
   transform="translate(24.05108,-4.6)" />
<path
   class="st2"
   d="m 218.45108,7.7 h -30.8 l -17.1,48 h 21.2 l 5.6,-15.4 h 13 c 0,0 12.5,0.9 18.6,-15.6 6,-16.5 -10.5,-17 -10.5,-17 m -6.2,4.2 -9.1,25.5 c -0.4,1.2 -1.4,1.4 -2.8,1.4 -1.3,-0.1 -2.3,-0.8 -1.9,-2.2 l 9.1,-25.5 c 0.5,-1.3 1.4,-1.6 2.6,-1.5 1.6,0 2.5,0.9 2.1,2.3"
   id="path10" />
<polygon
   class="st0"
   points="314.3,9.8 291.9,74.2 351.7,74.2 374.2,9.7 "
   id="polygon11"
   transform="translate(-221.1,68.099997)" />
<polygon
   class="st0"
   points="311.7,4.5 289.3,68.9 349,68.9 371.6,4.4 "
   id="polygon12"
   transform="translate(-221.1,68.099997)" />
<polygon
   class="st1"
   points="348.4,67.9 290.6,68 312.4,5.4 370.2,5.4 "
   id="polygon13"
   transform="translate(-221.1,68.099997)" />
<polygon
   class="st0"
   points="246.2,9.9 223.8,74.3 283.6,74.3 306.1,9.8 "
   id="polygon14"
   transform="translate(-221.1,68.099997)" />
<polygon
   class="st0"
   points="243.5,4.6 221.1,69 280.9,69 303.4,4.5 "
   id="polygon15"
   transform="translate(-221.1,68.099997)" />
<polygon
   class="st1"
   points="280.2,68 222.5,68.1 244.2,5.5 302.1,5.5 "
   id="polygon16"
   transform="translate(-221.1,68.099997)" />
<path
   class="st2"
   d="m 118.1,78.499997 c -14,0.8 -24.999997,11.4 -29.699997,25.100003 -4.8,13.7 -0.7,26.2 13.399997,25.3 14,-0.8 25,-13 29.7,-26.6 4.8,-13.600003 0.7,-24.700003 -13.4,-23.800003 m 1,6 L 104.7,124.5 c -0.7,1.9 -1.7,2.3 -3.1,2.3 -1.3,0 -2.199997,-1.1 -1.5,-3.3 l 14.4,-40.000003 c 0.8,-2.1 1.8,-2.5 3,-2.5 1.6,0 2.3,1.3 1.6,3.5"
   id="path16" />
<path
   class="st2"
   d="m 50.400003,80.699997 h 16.6 l -12.3,36.000003 h 5 l -0.7,2.4 h -4.9 l -3.6,9.9 h -19.6 l 3.2,-10.1 h -19.5 z m -5.8,9 -25.7,27.000003 h 15.7 z"
   id="path17" />
</svg>
