<?xml version="1.0" encoding="utf-8"?>
<!-- Generator: Adobe Illustrator 22.0.0, SVG Export Plug-In . SVG Version: 6.00 Build 0)  -->
<svg version="1.1" id="Layer_1" xmlns="http://www.w3.org/2000/svg" xmlns:xlink="http://www.w3.org/1999/xlink" x="0px" y="0px"
	 viewBox="0 0 374.3 74.7" style="enable-background:new 0 0 374.3 74.7;" xml:space="preserve">
<style type="text/css">
	.st0{fill:#13110C;}
	.st1{fill:#FFFFFF;}
	.st2{fill:#ED1C24;}
</style>
<polygon class="st0" points="162.5,10 140.1,74.5 199.8,74.4 222.4,9.9 "/>
<polygon class="st0" points="159.8,4.7 137.4,69.2 197.2,69.1 219.7,4.6 "/>
<polygon class="st1" points="196.4,67.7 138.6,67.8 160.4,5.3 218.2,5.2 "/>
<polygon class="st0" points="93.6,10.1 71.2,74.6 131,74.5 153.5,10 "/>
<polygon class="st0" points="90.9,4.8 68.5,69.3 128.3,69.2 150.9,4.7 "/>
<polygon class="st1" points="127.6,68.2 69.9,68.3 91.6,5.8 149.5,5.7 "/>
<polygon class="st0" points="25.2,10.2 2.8,74.6 62.6,74.6 85.1,10.1 "/>
<polygon class="st0" points="22.5,4.9 0.1,69.4 59.9,69.3 82.5,4.8 "/>
<polygon class="st1" points="59.2,68.3 1.5,68.4 23.2,5.9 81.1,5.8 "/>
<path class="st2" d="M118.4,11.7c-14,0.8-29.2,12.6-34,26.2c-4.8,13.7,2.8,24,16.8,23.2c14-0.8,29.2-12.6,34-26.2
	C139.9,21.3,132.4,10.9,118.4,11.7 M119.1,17.1l-14.4,40c-0.6,1.5-1.9,2.4-3.3,2.4c-1.5,0-2-1.2-1.3-3.3l14.4-40
	c0.5-1.4,1.6-2.4,3-2.4C119.1,13.7,119.7,15.1,119.1,17.1"/>
<polygon class="st2" points="43.6,61 22.4,61.1 37.7,16.3 28.3,16.3 29.4,13.6 69.8,13.5 69.1,16.3 60,16.3 "/>
<path class="st2" d="M194.4,12.3l-30.8,0l-17.1,48l21.2,0l5.6-15.4l13,0c0,0,12.5,0.9,18.6-15.6C210.9,12.8,194.4,12.3,194.4,12.3
	 M188.2,16.5L179.1,42c-0.4,1.2-1.4,1.4-2.8,1.4c-1.3-0.1-2.3-0.8-1.9-2.2l9.1-25.5c0.5-1.3,1.4-1.6,2.6-1.5
	C187.7,14.2,188.6,15.1,188.2,16.5"/>
<polygon class="st0" points="314.3,9.8 291.9,74.2 351.7,74.2 374.2,9.7 "/>
<polygon class="st0" points="311.7,4.5 289.3,68.9 349,68.9 371.6,4.4 "/>
<polygon class="st1" points="348.4,67.9 290.6,68 312.4,5.4 370.2,5.4 "/>
<polygon class="st0" points="246.2,9.9 223.8,74.3 283.6,74.3 306.1,9.8 "/>
<polygon class="st0" points="243.5,4.6 221.1,69 280.9,69 303.4,4.5 "/>
<polygon class="st1" points="280.2,68 222.5,68.1 244.2,5.5 302.1,5.5 "/>
<path class="st2" d="M339.2,10.4c-14,0.8-25,11.4-29.7,25.1c-4.8,13.7-0.7,26.2,13.4,25.3c14-0.8,25-13,29.7-26.6
	C357.4,20.6,353.3,9.5,339.2,10.4 M340.2,16.4l-14.4,40c-0.7,1.9-1.7,2.3-3.1,2.3c-1.3,0-2.2-1.1-1.5-3.3l14.4-40
	c0.8-2.1,1.8-2.5,3-2.5C340.2,12.9,340.9,14.2,340.2,16.4"/>
<path class="st2" d="M271.5,12.6l16.6,0l-12.3,36l5,0l-0.7,2.4l-4.9,0l-3.6,9.9l-19.6,0l3.2-10.1l-19.5,0L271.5,12.6z M265.7,21.6
	L240,48.6l15.7,0L265.7,21.6z"/>
</svg>
